<?xml version="1.0" encoding="UTF-8"?>
<svg width="48px" height="52px" viewBox="0 0 48 52" version="1.1" xmlns="http://www.w3.org/2000/svg" xmlns:xlink="http://www.w3.org/1999/xlink">
    <!-- Generator: Sketch 48.2 (47327) - http://www.bohemiancoding.com/sketch -->
    <title>Airplane</title>
    <desc>Created with Sketch.</desc>
    <defs></defs>
    <g id="Desktop-HD" stroke="none" stroke-width="1" fill="none" fill-rule="evenodd" transform="translate(-1121.000000, -722.000000)">
        <g id="Group-4" transform="translate(146.000000, 722.000000)" fill="#000000" fill-rule="nonzero">
            <g id="Group-3" transform="translate(816.000000, 0.000000)">
                <g id="Airplane" transform="translate(159.000000, 0.000000)">
                    <path d="M28.9933,18.4965 L34.0633,21.0318 C34.1945,19.844 34.606,19 35.9376,19 C37.984,19 37.9376,20.8578 37.9376,22.9688 L46.8947,27.4472 C47.5721768,27.7860675 48.0000689,28.4786002 48,29.2361 L48,32.9971 C48.0000425,33.3012655 47.8616472,33.5889159 47.6239536,33.778701 C47.38626,33.9684862 47.0751102,34.0397727 46.7785,33.9724 L28.7562,29.8764 C28.5703771,35.5048076 27.8424102,41.1021956 26.5824,46.5909 L32.3969,49.8209 C32.884739,50.092326 33.1135526,50.6700676 32.9438478,51.2019127 C32.7741431,51.7337579 32.2529891,52.0721947 31.6981,52.0109 C26.5818664,51.4425996 21.4184336,51.4425996 16.3022,52.0109 C15.7474007,52.0720074 15.2264222,51.7335829 15.0567288,51.2018494 C14.8870354,50.6701159 15.1156652,50.0924671 15.6033,49.8209 L21.4177,46.5909 C20.157601,41.1022142 19.4296661,35.5048144 19.244,29.8764 L1.2216,33.9724 C0.92497533,34.039808 0.613795949,33.968538 0.376077594,33.7787487 C0.138359239,33.5889593 -4.93851953e-05,33.3012875 1.11022302e-15,32.9971 L1.11022302e-15,29.2361 C2.57436432e-05,28.4784889 0.428128976,27.7859279 1.1058,27.4472 L10,23 L9.998,23 C9.998,20.876 9.943,19 11.9374,19 C13.3227,19 13.7422,19.8591 13.8731,21.0635 L19.0068,18.4965 C19.1464,1.6612 21.6482,0 24,0 C26.3518,0 28.8537,1.6612 28.9933,18.4965 Z" id="Shape"></path>
                </g>
            </g>
        </g>
    </g>
</svg>