<?xml version="1.0" encoding="UTF-8"?>
<svg width="48px" height="46px" viewBox="0 0 48 46" version="1.1" xmlns="http://www.w3.org/2000/svg" xmlns:xlink="http://www.w3.org/1999/xlink">
    <!-- Generator: Sketch 48.2 (47327) - http://www.bohemiancoding.com/sketch -->
    <title>Home</title>
    <desc>Created with Sketch.</desc>
    <defs></defs>
    <g id="Desktop-HD" stroke="none" stroke-width="1" fill="none" fill-rule="evenodd" transform="translate(-261.000000, -726.000000)">
        <g id="Group-4" transform="translate(146.000000, 722.000000)" fill="#000000" fill-rule="nonzero">
            <g id="Group" transform="translate(0.000000, 3.000000)">
                <g id="Home" transform="translate(115.000000, 0.000000)">
                    <path d="M40,3 C41.1045695,3 42,3.8954305 42,5 L42,13.5253 C41.9997334,13.8284417 41.8170049,14.1016158 41.5369235,14.217587 C41.2568421,14.3335582 40.9344868,14.2695203 40.72,14.0553 L34.5859,7.9187 C34.2109604,7.54382069 34.0002193,7.035402 34,6.5052 L34,5 C34,3.8954305 34.8954305,3 36,3 L40,3 Z M40,47 L31,47 C29.8954305,47 29,46.1045695 29,45 L29,33 C29,31.8954305 28.1045695,31 27,31 L21,31 C19.8954305,31 19,31.8954305 19,33 L19,45 C19,46.1045695 18.1045695,47 17,47 L8,47 C6.8954305,47 6,46.1045695 6,45 L6,26.987 L2.01,26.987 C1.20107507,26.9865485 0.472015716,26.4990225 0.162580667,25.7516205 C-0.146854381,25.0042186 0.0242282313,24.144021 0.5961,23.5719 L22.59,1.5654 C22.9649131,1.19030458 23.4735139,0.979562828 24.00385,0.979562828 C24.5341861,0.979562828 25.0427869,1.19030458 25.4177,1.5654 L47.4117,23.5719 C47.9836486,24.1439598 48.1548084,25.0041622 47.8454065,25.7515898 C47.5360047,26.4990174 46.8069359,26.9865652 45.998,26.987 L42,26.987 L42,45 C42,46.1045695 41.1045695,47 40,47 Z" id="Shape"></path>
                </g>
            </g>
        </g>
    </g>
</svg>